<?xml version="1.0" encoding="UTF-8"?> <svg xmlns="http://www.w3.org/2000/svg" width="32" height="28" viewBox="0 0 32 28" fill="none"> <path d="M15.5813 4.31756C15.9174 4.31756 16.1899 4.04502 16.1899 3.70894V0.608622C16.1899 0.272541 15.9174 0 15.5813 0C15.2451 0 14.9727 0.27248 14.9727 0.608622V3.70894C14.9727 4.04502 15.2452 4.31756 15.5813 4.31756Z" fill="#1A4D6C"></path> <path d="M11.0045 5.31721C11.1202 5.50083 11.3178 5.60138 11.5199 5.60138C11.6308 5.60138 11.7431 5.57107 11.8438 5.50759C12.1282 5.32841 12.2134 4.95258 12.0342 4.66818L10.4126 2.09523C10.2333 1.81088 9.85751 1.72561 9.57323 1.90485C9.28888 2.08403 9.20367 2.45985 9.38285 2.74426L11.0045 5.31721Z" fill="#1A4D6C"></path> <path d="M19.3196 5.50772C19.4203 5.57108 19.5325 5.60133 19.6432 5.60133C19.8454 5.60133 20.0432 5.50066 20.1589 5.31692L21.7788 2.74397C21.9578 2.4595 21.8724 2.0838 21.588 1.90462C21.3034 1.72562 20.9278 1.81107 20.7487 2.09542L19.1288 4.66837C18.9497 4.9529 19.0352 5.3286 19.3196 5.50772Z" fill="#1A4D6C"></path> <path d="M30.9653 14.3287L29.9078 12.4605C29.7421 12.1679 29.3707 12.065 29.0784 12.2307C28.7858 12.3963 28.683 12.7676 28.8486 13.06L29.9056 14.9274C29.9585 15.0213 29.9448 15.1118 29.9319 15.1574C29.9195 15.2012 29.8853 15.2822 29.7958 15.3317L28.166 16.2344C28.0212 16.3144 27.8323 16.2639 27.7533 16.1246L27.3393 15.3922C27.3376 15.3889 27.3356 15.3859 27.3339 15.3827L23.0534 7.81177C23.0005 7.71859 23.0139 7.62925 23.0266 7.58427C23.0388 7.54075 23.0728 7.46035 23.1622 7.41087L24.794 6.50792C24.9406 6.42673 25.1249 6.47603 25.2051 6.61808L26.159 8.30354C26.3246 8.5961 26.6961 8.6989 26.9885 8.53342C27.281 8.36787 27.3839 7.99649 27.2183 7.70399L26.2648 6.01926C25.8581 5.29829 24.9341 5.03968 24.2049 5.44277L22.5732 6.34572C22.2202 6.54085 21.9651 6.86336 21.855 7.25403C21.7512 7.62237 21.7883 8.0069 21.9583 8.34438L21.0595 8.60487C20.6766 8.71564 20.4443 8.77571 20.3153 8.77571C20.3147 8.77571 20.3142 8.77571 20.3138 8.77571C20.225 8.7754 20.1281 8.7415 19.8518 8.63682C19.7264 8.58935 19.5703 8.53019 19.3784 8.46324L17.7859 7.90653C16.9052 7.59894 16.5079 7.61549 15.9324 7.66802L13.217 7.91104C11.9791 8.02071 11.1899 8.29995 10.7543 8.78423L9.20678 8.33586C9.37329 7.99984 9.40902 7.61902 9.30616 7.25403C9.19613 6.8636 8.94123 6.54115 8.58854 6.34603L6.9578 5.44265C6.22794 5.03919 5.30338 5.29792 4.89664 6.01871L0.197831 14.3278C-0.00331851 14.682 -0.0531038 15.0939 0.0577872 15.4877C0.167948 15.8788 0.42296 16.2016 0.775353 16.3965L2.40609 17.2998C2.63926 17.4287 2.89257 17.4899 3.14253 17.4899C3.67355 17.4899 4.18978 17.2136 4.46725 16.7238L4.63955 16.419C5.10978 16.626 5.50459 16.9267 5.77366 17.2827C5.51086 17.5898 5.34531 17.9688 5.29887 18.381C5.23753 18.9262 5.39151 19.461 5.73246 19.8874C6.07049 20.3101 6.55385 20.5768 7.09437 20.6396C7.03716 21.1801 7.19175 21.7097 7.53008 22.1313C7.8798 22.5685 8.37406 22.8236 8.89108 22.8838C8.83412 23.4235 8.98816 23.9527 9.32546 24.3745C9.6633 24.7981 10.1468 25.0654 10.6879 25.1282C10.6306 25.6691 10.7852 26.199 11.1235 26.6207C11.5268 27.1249 12.1221 27.3874 12.7232 27.3873C13.1718 27.3873 13.6237 27.241 14.0009 26.9397L15.2752 25.92C15.3764 25.8393 15.4684 25.75 15.5511 25.6538L16.279 26.2353C16.6555 26.5357 17.1063 26.6817 17.5543 26.6816C18.1557 26.6816 18.752 26.4187 19.1558 25.9141C19.3686 25.648 19.5034 25.3443 19.5642 25.0308C19.7771 25.1044 20.0018 25.1425 20.2309 25.1424C20.3077 25.1424 20.385 25.1381 20.4625 25.1296C21.0078 25.069 21.4955 24.8008 21.8343 24.3759C22.1732 23.9536 22.3278 23.4241 22.2707 22.8836C22.7873 22.8233 23.2818 22.5683 23.6326 22.1313C23.9819 21.6944 24.1222 21.1567 24.0673 20.6395C24.6075 20.5765 25.0906 20.3099 25.4278 19.8882C25.769 19.463 25.9237 18.9289 25.8632 18.3842C25.8173 17.9707 25.6517 17.5904 25.3884 17.2825C25.6567 16.9266 26.0507 16.6255 26.5212 16.4186L26.6939 16.724C26.9712 17.2137 27.4872 17.4898 28.0183 17.4898C28.2684 17.4898 28.5219 17.4285 28.7554 17.2995L30.3852 16.3967C30.7374 16.2019 30.9923 15.8796 31.1029 15.4892C31.2144 15.0957 31.1657 14.6838 30.9653 14.3287ZM3.40789 16.1243C3.32877 16.2641 3.13967 16.3145 2.99548 16.2347L1.3648 15.3315C1.27576 15.2822 1.2418 15.2015 1.22938 15.1577C1.21666 15.1124 1.20309 15.0224 1.25677 14.928L5.95631 6.61729C6.01011 6.52192 6.11151 6.46848 6.2168 6.46848C6.26804 6.46848 6.32014 6.48108 6.36822 6.50768L7.99848 7.41075C7.99866 7.41087 7.99884 7.41099 7.99903 7.41106C8.08825 7.46041 8.12215 7.54081 8.13444 7.58433C8.1471 7.62931 8.16049 7.71865 8.107 7.81287L3.40789 16.1243ZM7.84924 19.2563C7.67761 19.3938 7.46088 19.4559 7.23941 19.4313C7.01781 19.4067 6.82031 19.2987 6.68312 19.1272C6.54564 18.9553 6.48368 18.7386 6.50857 18.5172C6.53334 18.2967 6.64137 18.1002 6.81386 17.9629L9.09242 16.1416C9.45004 15.8561 9.97352 15.9148 10.2593 16.2717C10.3968 16.4436 10.4588 16.6599 10.4339 16.8806C10.4092 17.1006 10.3011 17.297 10.1296 17.4334C10.1259 17.4364 10.1226 17.4397 10.119 17.4429L7.84979 19.2559C7.84961 19.256 7.84943 19.2562 7.84924 19.2563ZM8.48002 21.3703C8.34265 21.1991 8.28057 20.9833 8.3051 20.7628C8.32963 20.542 8.43778 20.3446 8.60954 20.2068L8.60972 20.2067C8.60984 20.2067 8.60996 20.2065 8.61008 20.2065C8.61014 20.2065 8.61014 20.2064 8.6102 20.2064L11.8923 17.5842C12.2498 17.2986 12.7734 17.3569 13.0592 17.7144C13.1964 17.8859 13.2584 18.102 13.2339 18.3227C13.2093 18.5436 13.1009 18.741 12.9287 18.8786L9.64748 21.4998C9.28949 21.7855 8.76607 21.7279 8.48002 21.3703ZM10.8328 23.9198C10.6113 23.8952 10.414 23.7871 10.2766 23.6149C10.1394 23.4433 10.0773 23.2273 10.1019 23.0066C10.1265 22.7858 10.2347 22.5886 10.4067 22.451C10.4068 22.4509 10.407 22.4508 10.4071 22.4507L12.6784 20.6362C12.681 20.6342 12.684 20.6324 12.6866 20.6303C13.0433 20.3448 13.5667 20.4029 13.8528 20.7594C13.9902 20.9313 14.0523 21.148 14.0274 21.3694C14.0025 21.5899 13.8945 21.7864 13.7221 21.9236L11.4436 23.745C11.2714 23.8824 11.0544 23.9443 10.8328 23.9198ZM14.8204 24.4139C14.7958 24.6346 14.6876 24.8316 14.5154 24.9692L13.241 25.9891C12.8829 26.2748 12.3595 26.2173 12.0736 25.8597C11.9362 25.6886 11.8741 25.4726 11.8986 25.2517C11.9231 25.0307 12.0311 24.8335 12.2026 24.6966C12.2028 24.6965 12.203 24.6963 12.2032 24.6962L13.4773 23.6777C13.478 23.6771 13.4787 23.6767 13.4794 23.6762C13.8371 23.3908 14.3605 23.4493 14.6463 23.8064C14.7832 23.9777 14.8451 24.1933 14.8204 24.4139ZM24.4779 19.1272C24.3407 19.2987 24.1432 19.4067 23.9216 19.4313C23.7003 19.4562 23.4834 19.3939 23.3118 19.2563C23.3117 19.2562 23.3116 19.2562 23.3115 19.2561C23.3114 19.2561 23.3113 19.256 23.3112 19.2559L21.6827 17.9548C21.42 17.7449 21.0371 17.7878 20.8273 18.0503C20.6175 18.3129 20.6603 18.6959 20.9229 18.9057L22.5509 20.2064C22.908 20.4924 22.9669 21.0149 22.6826 21.3702C22.3959 21.7276 21.8724 21.7857 21.515 21.4995L19.7485 20.0898C19.4858 19.8802 19.1028 19.9232 18.8932 20.1859C18.6836 20.4486 18.7265 20.8315 18.9893 21.0412L20.755 22.4502C20.927 22.588 21.0353 22.7856 21.0599 23.0066C21.0844 23.2271 21.0223 23.443 20.8838 23.6155C20.7469 23.7871 20.5496 23.8952 20.3281 23.9198C20.1064 23.9442 19.8894 23.8823 19.7179 23.7454L18.839 23.0425C18.8374 23.0413 18.8361 23.04 18.8346 23.0388L18.0919 22.4451L17.9531 22.334C17.6905 22.1241 17.3075 22.1667 17.0977 22.4292C17.0715 22.462 17.0491 22.4967 17.0307 22.5328C16.9426 22.705 16.9441 22.907 17.0268 23.0764C17.0651 23.1548 17.1202 23.2265 17.1929 23.2846L18.0767 23.9914C18.4314 24.2779 18.4894 24.7985 18.2054 25.1537C17.9195 25.511 17.396 25.5694 17.0385 25.2842L16.0358 24.4831C16.0776 23.9622 15.9232 23.4542 15.5968 23.046C15.3938 22.7924 15.1422 22.6003 14.8658 22.4715C15.0684 22.1905 15.197 21.8604 15.2369 21.5054C15.2982 20.9603 15.1442 20.4255 14.8027 19.9984C14.5997 19.7455 14.3484 19.5538 14.0725 19.4253C14.2754 19.1434 14.404 18.8126 14.4436 18.4572C14.5042 17.9133 14.3501 17.3795 14.0097 16.9539C13.4241 16.2217 12.4338 15.9991 11.6095 16.349C11.5435 16.046 11.4087 15.7602 11.2097 15.5113C10.505 14.6308 9.21463 14.4867 8.33267 15.1904L6.70303 16.493C6.33451 16.0228 5.83355 15.6327 5.24124 15.3546L8.59347 9.42535L10.3783 9.9425C10.3865 10.038 10.4019 10.1384 10.4278 10.2448C10.8599 12.0212 12.4955 12.849 14.6964 12.4055C16.5509 12.0323 17.3144 12.5882 18.8349 13.6954C18.9926 13.8103 19.1565 13.9296 19.3281 14.0525C20.4216 14.837 21.5902 15.7592 22.3736 16.3842L24.3492 17.963C24.5209 18.1 24.6289 18.2972 24.6534 18.5183C24.6779 18.7393 24.6159 18.9553 24.4779 19.1272ZM24.459 16.4927L23.1332 15.4331C22.3389 14.7995 21.1538 13.8645 20.0373 13.0634C19.8681 12.9422 19.7068 12.8247 19.5515 12.7116C17.9748 11.5634 16.8352 10.7339 14.4563 11.2123C13.7281 11.3591 11.9933 11.5306 11.6107 9.95747C11.5567 9.73538 11.6115 9.65906 11.6348 9.6265C11.7162 9.51305 12.0436 9.23692 13.3247 9.12347L16.043 8.88021C16.486 8.8398 16.7082 8.81947 17.3842 9.05561L18.9769 9.61238C19.1539 9.67422 19.2955 9.72778 19.4204 9.77513C20.1873 10.0656 20.3905 10.0656 21.398 9.77397L22.5721 9.43375L25.9198 15.355C25.3273 15.6329 24.8269 16.0226 24.459 16.4927Z" fill="#1A4D6C"></path> <path d="M28.0305 10.9914C28.3666 10.9914 28.6391 10.718 28.6391 10.3818C28.6391 10.0457 28.3666 9.77319 28.0305 9.77319C27.6944 9.77319 27.4219 10.0457 27.4219 10.3818V10.3835C27.4219 10.7197 27.6944 10.9914 28.0305 10.9914Z" fill="#1A4D6C"></path> </svg> 