<?xml version="1.0" encoding="UTF-8"?> <svg xmlns="http://www.w3.org/2000/svg" width="86" height="86" viewBox="0 0 86 86" fill="none"> <path fill-rule="evenodd" clip-rule="evenodd" d="M65.3888 19.9443C63.9886 13.6812 57.8278 10.6036 55.243 10.1696C53.1036 5.24651 46.6207 3.34085 44.8186 2.1885C43.0166 1.03614 42.8906 0.470463 42.6666 0C42.4439 0.470463 42.3151 1.02494 40.5145 2.18289C38.7138 3.34085 32.2295 5.24651 30.0901 10.164C27.5095 10.598 21.3445 13.6756 19.9443 19.9387C13.6812 21.3389 10.6036 27.4997 10.1696 30.0845C5.24651 32.2239 3.34085 38.7068 2.1885 40.5089C1.03614 42.3109 0.470463 42.4439 0 42.6666C0.470463 42.8906 1.02494 43.0194 2.18289 44.82C3.34085 46.6207 5.24651 53.105 10.164 55.2444C10.6036 57.8278 13.6812 63.9886 19.9443 65.3888C21.3445 71.6519 27.5053 74.7281 30.0901 75.1635C32.2295 80.0866 38.7124 81.9923 40.5145 83.1446C42.3165 84.297 42.4439 84.857 42.6666 85.3275C42.8906 84.857 43.0194 84.3026 44.82 83.1446C46.6207 81.9867 53.105 80.081 55.2444 75.1635C57.8278 74.7295 63.9886 71.6533 65.3888 65.3888C71.6519 63.9886 74.7281 57.8278 75.1635 55.243C80.0866 53.1036 81.9923 46.6207 83.1446 44.8186C84.297 43.0166 84.857 42.8892 85.3275 42.6652C84.857 42.4425 84.3026 42.3137 83.1446 40.5131C81.9867 38.7124 80.081 32.2281 75.1635 30.0887C74.7281 27.5081 71.6519 21.3431 65.3888 19.9429V19.9443Z" fill="#1A4D6C"></path> <path d="M50.3475 34.0713V38.1477H56.8165L55.9714 44.5512H50.3475V80.3114L43.6025 84V44.5609H38V38.1575H43.6025V33.4421C43.6025 27.9776 47.0056 25.0004 51.9779 25.0004C53.6553 24.9931 55.3319 25.0765 57 25.2502V30.97H53.577C50.8767 30.9644 50.3475 32.2228 50.3475 34.0713Z" fill="white"></path> </svg> 