<?xml version="1.0" encoding="UTF-8"?> <svg xmlns="http://www.w3.org/2000/svg" width="35" height="35" viewBox="0 0 35 35" fill="none"> <path d="M15.1802 19.6011C15.2147 19.6433 15.2548 19.6807 15.2988 19.7136C17.0107 21.3112 19.3063 22.2902 21.827 22.2902C24.3153 22.2902 26.5848 21.3362 28.2896 19.7748C28.3836 19.7208 28.463 19.6449 28.5212 19.5547C30.2987 17.8152 31.404 15.3909 31.404 12.7135C31.404 7.43256 27.1076 3.13647 21.827 3.13647C16.5461 3.13647 12.25 7.43256 12.25 12.7135C12.25 15.4149 13.3748 17.8584 15.1802 19.6011ZM16.422 18.9115C16.7661 17.1403 18.3157 15.8429 20.1554 15.8429H21.1523V18.392C21.1523 18.7644 21.4544 19.0667 21.827 19.0667C22.1994 19.0667 22.5016 18.7644 22.5016 18.392V15.8429H23.4983C25.3404 15.8429 26.8881 17.1395 27.232 18.9112C25.7852 20.1746 23.8939 20.9412 21.827 20.9412C19.7599 20.9409 17.8688 20.1746 16.422 18.9115ZM19.7909 11.9574H20.4416C21.3297 11.9574 22.1754 11.6375 22.8347 11.0648L23.8628 11.6688V12.4576C23.8628 13.5802 22.9494 14.4936 21.827 14.4936C20.7043 14.4936 19.7909 13.5802 19.7909 12.4576V11.9574ZM23.8628 10.104L23.0659 9.63595C22.7818 9.46887 22.4189 9.53159 22.207 9.78431C21.7682 10.308 21.1249 10.6081 20.4416 10.6081H19.7909V9.96272C19.7909 8.84008 20.7043 7.92695 21.827 7.92695C22.9494 7.92695 23.8628 8.84008 23.8628 9.96272V10.104ZM21.827 4.48575C26.3637 4.48575 30.0547 8.17651 30.0547 12.7135C30.0547 14.6227 29.4006 16.3823 28.3051 17.7799C27.669 16.1294 26.2193 14.9113 24.4594 14.5824C24.9298 14.0008 25.212 13.2616 25.212 12.4576V9.96272C25.212 8.09613 23.6936 6.5774 21.827 6.5774C19.9604 6.5774 18.4417 8.09613 18.4417 9.96272V12.4576C18.4417 13.2619 18.7242 14.0011 19.1943 14.5824C17.4363 14.9121 15.9856 16.1307 15.3491 17.7804C14.2534 16.3826 13.5993 14.623 13.5993 12.7135C13.5993 8.17651 17.29 4.48575 21.827 4.48575Z" fill="#1A4D6C"></path> <path d="M21.7273 25.6275C25.1501 25.6275 28.368 24.2946 30.7883 21.8743C33.2086 19.4541 34.5415 16.2361 34.5415 12.8134C34.5415 9.39062 33.2086 6.17264 30.7883 3.75238C28.7217 1.68603 25.9862 0.378657 23.0858 0.0711167C20.2276 -0.231944 17.3227 0.44006 14.9048 1.96353C14.5896 2.16197 14.495 2.57861 14.6934 2.89379C14.8921 3.20898 15.3088 3.30385 15.6239 3.10515C20.1785 0.23556 26.0218 0.894123 29.8341 4.70662C31.9995 6.87205 33.1922 9.75113 33.1922 12.8134C33.1922 15.8758 31.9995 18.7549 29.8341 20.9204C27.6689 23.0858 24.7898 24.2783 21.7273 24.2783C18.6648 24.2783 15.7858 23.0858 13.6206 20.9204C9.80809 17.1081 9.14952 11.2646 12.0188 6.71025C12.2175 6.3948 12.1229 5.97842 11.8078 5.77972C11.4923 5.58102 11.0759 5.67562 10.8772 5.99081C9.35402 8.4087 8.68202 11.3141 8.98508 14.1719C9.16955 15.9133 9.71506 17.5949 10.5684 19.108L7.81975 21.8567L1.00748 28.6695C0.357875 29.3191 0 30.1827 0 31.1013C0 32.02 0.357875 32.8839 1.00748 33.5335C1.65708 34.1831 2.52067 34.5407 3.4396 34.5407C4.35827 34.5407 5.22186 34.1831 5.87146 33.5335L12.684 26.7209C12.684 26.7209 12.684 26.7207 12.6843 26.7207L15.4268 23.9781C17.3277 25.0546 19.4834 25.6275 21.7273 25.6275ZM4.91748 32.5792C4.52245 32.974 3.99776 33.1914 3.43934 33.1914C2.88118 33.1914 2.35623 32.974 1.96146 32.5792C1.14662 31.7644 1.14662 30.4383 1.96146 29.6235L8.297 23.2879L11.2528 26.2439L4.91748 32.5792ZM12.207 25.2897L9.25098 22.3339L11.311 20.2739C11.7168 20.8413 12.1693 21.3773 12.6663 21.8743C13.1665 22.3745 13.7012 22.8273 14.2641 23.2326L12.207 25.2897Z" fill="#1A4D6C"></path> <path d="M13.1434 4.90428C13.316 4.90428 13.4886 4.83866 13.6204 4.70689C13.8839 4.44336 13.8839 4.01618 13.6204 3.75265V3.75238C13.3569 3.48911 12.9297 3.48911 12.6662 3.75238C12.4029 4.01591 12.4029 4.44336 12.6664 4.70663C12.7982 4.83866 12.9708 4.90428 13.1434 4.90428Z" fill="#1A4D6C"></path> </svg> 