<?xml version="1.0" encoding="UTF-8"?> <svg xmlns="http://www.w3.org/2000/svg" width="27" height="33" viewBox="0 0 27 33" fill="none"> <path d="M3.90888 22.7749C1.38911 20.2551 0 16.9083 0 13.3419C0 9.77544 1.38911 6.42866 3.90888 3.90888C6.42866 1.38911 9.7819 0 13.3484 0C16.9148 0 20.2681 1.38911 22.7878 3.90888C25.3076 6.42866 26.6967 9.77544 26.6967 13.3419C26.6967 16.9083 25.3076 20.2551 22.7878 22.7749L13.3484 32.2079L3.90888 22.7749ZM13.3484 1.22112C10.0985 1.22112 7.04891 2.48101 4.76173 4.76819C2.46809 7.06184 1.20174 10.105 1.20174 13.3484C1.20174 16.5853 2.46163 19.6349 4.75527 21.9221L13.3484 30.4958L21.935 21.9221C24.2286 19.6284 25.4885 16.5853 25.4885 13.3484C25.4885 10.1114 24.2286 7.06184 21.935 4.77465C19.6478 2.48101 16.5982 1.22112 13.3484 1.22112Z" fill="#1A4D6C"></path> <path d="M6.9824 19.9902C7.0147 20.029 7.05347 20.0677 7.09869 20.1C8.73978 21.6313 10.9365 22.5681 13.3529 22.5681C15.737 22.5681 17.9079 21.6571 19.5425 20.1582C19.633 20.1065 19.7105 20.0354 19.7622 19.945C21.4614 18.2781 22.521 15.9586 22.521 13.3936C22.521 8.33463 18.4054 4.21899 13.3464 4.21899C8.28751 4.21899 4.17188 8.33463 4.17188 13.3936C4.17188 15.978 5.25086 18.3233 6.9824 19.9902ZM8.17121 19.3312C8.50072 17.632 9.98674 16.3915 11.7441 16.3915H12.7004V18.8337C12.7004 19.1891 12.9911 19.4798 13.3464 19.4798C13.7018 19.4798 13.9925 19.1891 13.9925 18.8337V16.3915H14.9488C16.7126 16.3915 18.1922 17.632 18.5217 19.3312C17.139 20.5394 15.3235 21.2759 13.3464 21.2759C11.3694 21.2759 9.55386 20.5394 8.17121 19.3312ZM11.3952 12.6699H12.0155C12.8683 12.6699 13.676 12.3663 14.3091 11.8171L15.2912 12.3986V13.1545C15.2912 14.227 14.419 15.1057 13.34 15.1057C12.2675 15.1057 11.3888 14.2335 11.3888 13.1545V12.6699H11.3952ZM15.2977 10.8932L14.5353 10.4474C14.2639 10.2858 13.915 10.3505 13.7147 10.5895C13.2948 11.0935 12.681 11.3777 12.0219 11.3777H11.4017V10.7575C11.4017 9.68497 12.2739 8.80628 13.3529 8.80628C14.4254 8.80628 15.3041 9.67851 15.3041 10.7575V10.8932H15.2977ZM13.3464 5.51119C17.6882 5.51119 21.2288 9.04534 21.2288 13.3936C21.2288 15.222 20.6021 16.9083 19.5554 18.2458C18.9481 16.6628 17.559 15.4998 15.8727 15.1833C16.325 14.6276 16.5963 13.9169 16.5963 13.148V10.7575C16.5963 8.9678 15.1426 7.51409 13.3529 7.51409C11.5632 7.51409 10.1095 8.9678 10.1095 10.7575V13.148C10.1095 13.9169 10.3809 14.6276 10.8331 15.1833C9.14682 15.4998 7.75771 16.6628 7.15038 18.2458C6.09078 16.9083 5.46407 15.222 5.46407 13.3936C5.46407 9.0518 9.00468 5.51119 13.3464 5.51119Z" fill="#1A4D6C"></path> </svg> 